<?xml version="1.0" encoding="UTF-8" standalone="no"?>
<!-- Created with Inkscape (http://www.inkscape.org/) -->

<svg
   xmlns:dc="http://purl.org/dc/elements/1.1/"
   xmlns:cc="http://creativecommons.org/ns#"
   xmlns:rdf="http://www.w3.org/1999/02/22-rdf-syntax-ns#"
   xmlns:svg="http://www.w3.org/2000/svg"
   xmlns="http://www.w3.org/2000/svg"
   xmlns:sodipodi="http://sodipodi.sourceforge.net/DTD/sodipodi-0.dtd"
   xmlns:inkscape="http://www.inkscape.org/namespaces/inkscape"
   width="210mm"
   height="297mm"
   viewBox="0 0 744.09448819 1052.3622047"
   id="svg2"
   version="1.1"
   inkscape:version="0.91 r13725"
   sodipodi:docname="logos.svg">
  <defs
     id="defs4" />
  <sodipodi:namedview
     id="base"
     pagecolor="#ffffff"
     bordercolor="#666666"
     borderopacity="1.0"
     inkscape:pageopacity="0.0"
     inkscape:pageshadow="2"
     inkscape:zoom="0.7"
     inkscape:cx="212.12731"
     inkscape:cy="711.69187"
     inkscape:document-units="px"
     inkscape:current-layer="layer1"
     showgrid="false"
     inkscape:window-width="1360"
     inkscape:window-height="705"
     inkscape:window-x="-8"
     inkscape:window-y="-8"
     inkscape:window-maximized="1" />
  <metadata
     id="metadata7">
    <rdf:RDF>
      <cc:Work
         rdf:about="">
        <dc:format>image/svg+xml</dc:format>
        <dc:type
           rdf:resource="http://purl.org/dc/dcmitype/StillImage" />
        <dc:title></dc:title>
      </cc:Work>
    </rdf:RDF>
  </metadata>
  <g
     inkscape:label="Capa 1"
     inkscape:groupmode="layer"
     id="layer1">
    <rect
       style="opacity:1;fill:none;fill-opacity:1;fill-rule:nonzero;stroke:none;stroke-width:1;stroke-linecap:butt;stroke-linejoin:miter;stroke-miterlimit:4;stroke-dasharray:none;stroke-dashoffset:0;stroke-opacity:1"
       id="rect4193-0"
       width="100"
       height="100"
       x="80.765045"
       y="325.16858"
       inkscape:export-xdpi="31.5"
       inkscape:export-ydpi="31.5" />
    <path
       style="fill:#daf4e7;fill-opacity:1"
       d="m 85.915437,419.43042 c 0.17964,-0.46814 1.04827,-3.659 1.93027,-7.09081 l 1.60365,-6.23964 1.30889,1.254 c 0.7199,0.6897 1.52687,1.254 1.79327,1.254 0.2664,0 2.27381,-1.8 4.46091,-4 2.1871,-2.2 4.218933,-4 4.515193,-4 0.6631,0 3.73481,3.11286 3.73481,3.78485 0,0.26797 -1.90967,2.38697 -4.2437,4.70889 l -4.243703,4.22165 1.5005,1.54812 1.5005,1.54813 -6.24245,1.60436 c -3.43334,0.8824 -6.62546,1.75134 -7.0936,1.93099 -0.65309,0.25062 -0.77515,0.12855 -0.52454,-0.52454 z m 82.471953,-1.23258 -6.62504,-1.78507 1.25004,-1.30476 c 0.68752,-0.71762 1.25004,-1.513 1.25004,-1.76751 0,-0.25451 -1.915,-2.38666 -4.25554,-4.7381 l -4.25554,-4.27535 2.14517,-2.10532 2.14516,-2.10532 4.46838,4.48918 4.46838,4.48918 1.54781,-1.5002 1.54782,-1.5002 1.60436,6.24244 c 0.8824,3.43335 1.73635,6.5864 1.89768,7.0068 0.35972,0.93742 0.80792,1.00886 -7.18872,-1.14577 z m -48.62496,-15.85282 c -0.4125,-0.0808 -2.4375,-0.41971 -4.5,-0.75311 -4.98688,-0.8061 -8.85011,-2.29036 -9.82197,-3.77361 -1.68061,-2.56494 1.07721,-8.89008 6.00467,-13.77189 2.79867,-2.77274 9.7782,-6.93844 11.6252,-6.93844 1.06634,0 0.85296,-0.46366 -1.27662,-2.77398 -5.11659,-5.55084 -6.6837,-13.61335 -3.74908,-19.28829 1.36349,-2.63669 5.01762,-5.79087 7.76649,-6.7039 3.19518,-1.06127 8.41283,-0.81696 11.18473,0.5237 2.32271,1.12341 5.38133,4.04713 6.50299,6.21619 2.91554,5.63803 1.33445,13.71713 -3.76769,19.2523 -2.12958,2.31032 -2.34296,2.77398 -1.27662,2.77398 1.8565,0 8.95405,4.22615 11.68645,6.95855 4.62998,4.62997 7.49816,10.96904 6.12445,13.53583 -1.33477,2.49405 -8.90497,4.45323 -18.753,4.8533 l -6.5,0.26406 3.375,-3.44342 c 1.85625,-1.89388 3.37441,-3.66277 3.37368,-3.93087 -5e-4,-0.2681 -1.23823,-3.46748 -2.75,-7.10975 -1.51178,-3.64225 -2.74868,-6.89026 -2.74868,-7.21777 0,-0.32751 0.43637,-1.05998 0.96972,-1.62771 l 0.96973,-1.03222 -3.43945,0 -3.43945,0 0.96972,1.03222 c 0.53335,0.56773 0.96973,1.3002 0.96973,1.62771 0,0.32751 -1.2369,3.57552 -2.74868,7.21777 -1.51177,3.64227 -2.74927,6.84165 -2.75,7.10975 -7.5e-4,0.2681 1.5114,2.01185 3.36027,3.875 l 3.36159,3.38755 -4.98659,-0.058 c -2.74262,-0.0319 -5.32409,-0.12412 -5.73659,-0.20495 z m -22.993733,-56.98075 -4.22166,-4.2437 -1.53986,1.49249 -1.53987,1.4925 -1.80287,-6.8738 c -0.99159,-3.78058 -1.76893,-6.90774 -1.72744,-6.94922 0.0415,-0.0415 3.16864,0.73585 6.94922,1.72744 l 6.8738,1.80287 -1.4925,1.53987 -1.49249,1.53986 4.243703,4.22166 c 2.33403,2.32191 4.2437,4.46373 4.2437,4.75961 0,0.6626 -3.11325,3.73412 -3.78484,3.73412 -0.26798,0 -2.386983,-1.90967 -4.708893,-4.2437 z m 60.850183,2.35271 -1.8465,-1.89098 4.24502,-4.22298 c 2.33477,-2.32263 4.24503,-4.44063 4.24503,-4.70665 0,-0.26603 -0.55799,-1.0661 -1.23998,-1.77794 l -1.23998,-1.29426 6.85403,-1.82738 c 3.76972,-1.00506 6.8929,-1.78496 6.94041,-1.7331 0.0475,0.0519 -0.7249,3.18749 -1.71648,6.96807 l -1.80288,6.8738 -1.53987,-1.4925 -1.53986,-1.49249 -4.22166,4.2437 c -2.3219,2.33403 -4.46221,4.2437 -4.75622,4.2437 -0.29401,0 -1.36548,-0.85094 -2.38106,-1.89099 z"
       id="path4210"
       inkscape:connector-curvature="0"
       inkscape:export-xdpi="31.5"
       inkscape:export-ydpi="31.5" />
    <rect
       style="opacity:1;fill:none;fill-opacity:1;fill-rule:nonzero;stroke:none;stroke-width:1;stroke-linecap:butt;stroke-linejoin:miter;stroke-miterlimit:4;stroke-dasharray:none;stroke-dashoffset:0;stroke-opacity:1"
       id="rect4193-0-1"
       width="100"
       height="100"
       x="251.02545"
       y="328.59045"
       inkscape:export-xdpi="31.5"
       inkscape:export-ydpi="31.5" />
    <path
       style="fill:#daf4e7;fill-opacity:1"
       d="m 297.47321,418.25488 c -2.12284,-1.04609 -4.14061,-3.60417 -4.58142,-5.8082 l -0.32984,-1.64922 8.46354,0 8.46354,0 -0.32984,1.64922 c -1.02417,5.12083 -7.02667,8.10422 -11.68598,5.8082 z m -29.78105,-13.58943 c 0,-1.76427 0.42628,-2.38913 4.16666,-6.10757 l 4.16667,-4.14223 0.009,-12.2518 c 0.0101,-13.74343 0.49931,-17.27437 3.13479,-22.62778 2.10623,-4.27836 6.59053,-8.77012 10.73272,-10.75056 1.7597,-0.84134 3.54708,-1.52971 3.97196,-1.52971 0.5615,0 0.8382,-0.7922 1.01302,-2.90039 0.19838,-2.39221 0.53083,-3.19069 1.89743,-4.55729 1.41672,-1.41672 2.0315,-1.65691 4.24104,-1.65691 2.20954,0 2.82432,0.24019 4.24104,1.65691 1.3666,1.3666 1.69905,2.16508 1.89743,4.55729 0.17483,2.10819 0.45151,2.90039 1.01302,2.90039 1.79746,0 7.36722,3.25819 9.91661,5.801 3.23069,3.22237 4.80672,5.76336 6.42863,10.36471 1.09461,3.1054 1.20236,4.43707 1.39395,17.22871 l 0.20763,13.86317 4.11751,4.09335 c 3.69216,3.67051 4.11751,4.2964 4.11751,6.05871 l 0,1.96535 -33.33333,0 -33.33333,0 0,-1.96535 z"
       id="path4212"
       inkscape:connector-curvature="0"
       inkscape:export-xdpi="31.5"
       inkscape:export-ydpi="31.5" />
    <rect
       style="opacity:1;fill:none;fill-opacity:1;fill-rule:nonzero;stroke:none;stroke-width:1;stroke-linecap:butt;stroke-linejoin:miter;stroke-miterlimit:4;stroke-dasharray:none;stroke-dashoffset:0;stroke-opacity:1"
       id="rect4193-0-8"
       width="100"
       height="100"
       x="404.56863"
       y="323.5397"
       inkscape:export-xdpi="31.5"
       inkscape:export-ydpi="31.5" />
    <path
       style="fill:#daf4e7;fill-opacity:1"
       d="m 429.3814,417.15257 c -2.87643,-0.62379 -5.59151,-2.44108 -7.1504,-4.78598 -1.88348,-2.83317 -2.38797,-5.54321 -2.06192,-11.07644 0.32508,-5.51672 1.40623,-11.1355 2.77561,-14.42489 0.86768,-2.08428 2.72012,-4.81954 4.34874,-6.42123 2.2926,-2.2547 5.63899,-3.61411 8.89226,-3.61232 l 1.48243,7.8e-4 2.44141,1.56362 c 6.84547,4.38425 11.44952,5.67936 17.29798,4.86592 3.68985,-0.51321 6.57242,-1.67042 10.93564,-4.39011 l 3.27449,-2.04103 1.49986,0 c 4.48947,0 8.36688,2.32769 11.27678,6.76968 1.53599,2.34469 2.28904,4.19607 3.20344,7.87565 1.02747,4.13459 1.30946,6.26189 1.45022,10.94061 0.14134,4.69763 -0.0688,6.18765 -1.20716,8.55948 -1.43229,2.98424 -4.70543,5.45965 -8.18047,6.18674 -1.98466,0.41525 -48.36035,0.40559 -50.27891,-0.0105 z m -15.68171,-37.6953 c -1.44641,-0.35066 -3.28257,-1.2835 -4.25419,-2.1613 -0.42331,-0.38243 -1.00971,-1.186 -1.30311,-1.78569 -0.46584,-0.95214 -0.54377,-1.37947 -0.61478,-3.37097 -0.10038,-2.8156 0.25582,-7.67741 0.7438,-10.15217 0.89344,-4.53096 2.41422,-6.868 4.66573,-7.16999 0.68213,-0.0915 1.16832,0.0769 3.7029,1.28259 4.20163,1.99869 6.09419,2.59301 8.64776,2.71564 2.22908,0.10704 4.62656,-0.16022 6.4064,-0.71417 l 1.09111,-0.33959 0.007,3.33347 c 0.005,2.42655 0.0942,3.67885 0.32774,4.60299 0.55908,2.2126 1.52626,4.63428 2.49379,6.2441 l 0.93688,1.55881 -0.61315,0.0887 c -4.1731,0.60365 -6.1138,1.25752 -8.50675,2.86613 -0.92219,0.61993 -2.15711,1.6171 -2.74426,2.21595 l -1.06755,1.08881 -4.4012,-0.0163 c -3.03342,-0.0112 -4.7483,-0.10042 -5.51807,-0.28704 z m 38.12859,0.1733 c -7.77058,-1.22241 -14.14884,-7.04317 -15.74189,-14.36593 -0.42134,-1.93677 -0.41232,-6.19806 0.0175,-8.25797 1.16711,-5.59366 4.90387,-10.25937 10.32211,-12.88812 2.54297,-1.23377 4.5123,-1.67968 7.96215,-1.80286 3.33811,-0.11918 5.2591,0.18025 7.59738,1.18423 2.09665,0.90023 3.58194,1.93048 5.38223,3.73328 4.40301,4.40916 6.46331,9.89245 5.92184,15.76044 -0.41446,4.4917 -2.25505,8.29416 -5.57401,11.51535 -3.77853,3.66721 -7.79715,5.28261 -12.99819,5.22499 -1.32044,-0.0146 -2.62053,-0.0612 -2.88908,-0.10341 z m 32.7075,-0.86118 c -2.73791,-2.79996 -6.41723,-4.63561 -9.99186,-4.98505 -0.73091,-0.0714 -1.43681,-0.18664 -1.56868,-0.25597 -0.17058,-0.0897 -0.0347,-0.46265 0.47111,-1.29263 1.58084,-2.59424 2.59189,-5.63384 2.9939,-9.0008 0.20278,-1.69836 0.14526,-4.25836 -0.11624,-5.17334 -0.077,-0.26954 0.14507,-0.24813 1.62353,0.1565 2.38035,0.65146 5.67025,0.80755 7.82369,0.37121 2.32989,-0.4721 4.713,-1.35463 7.21781,-2.67297 2.46862,-1.29929 3.05347,-1.39336 4.36516,-0.70215 2.27253,1.19756 3.58101,4.92051 4.09609,11.65434 0.336,4.39282 0.19513,7.03595 -0.44999,8.4429 -0.92291,2.01276 -3.23099,3.7054 -5.77343,4.23397 -0.57344,0.11922 -2.972,0.21518 -5.37844,0.21518 l -4.34343,0 -0.96922,-0.99119 z M 423.369,354.47866 c -4.57939,-1.04338 -8.63627,-5.324 -9.44454,-9.96544 -0.3036,-1.74342 -0.12999,-4.52229 0.38478,-6.15889 1.11703,-3.55131 4.23712,-6.7953 7.70967,-8.0158 4.74593,-1.66806 9.89847,-0.42331 13.37292,3.23064 3.30821,3.47914 4.36128,8.39464 2.76898,12.92503 -1.21056,3.44425 -4.46703,6.5756 -8.01222,7.70437 -1.65682,0.52753 -5.07396,0.6687 -6.77959,0.28009 z m 56.60984,-0.0191 c -4.4401,-0.96342 -8.34696,-4.80731 -9.4212,-9.26933 -0.37515,-1.55825 -0.32188,-4.91446 0.10074,-6.34766 1.77673,-6.02528 7.66807,-9.92885 13.74959,-9.1104 3.00892,0.40494 5.08763,1.42668 7.23839,3.55787 2.98672,2.95953 4.26434,7.02752 3.54554,11.28908 -0.76877,4.55775 -4.97997,8.93195 -9.52674,9.89547 -1.63613,0.34672 -4.04854,0.34034 -5.68632,-0.015 z"
       id="path4208"
       inkscape:connector-curvature="0"
       inkscape:export-xdpi="31.5"
       inkscape:export-ydpi="31.5" />
    <rect
       style="opacity:1;fill:none;fill-opacity:1;fill-rule:nonzero;stroke:none;stroke-width:1;stroke-linecap:butt;stroke-linejoin:miter;stroke-miterlimit:4;stroke-dasharray:none;stroke-dashoffset:0;stroke-opacity:1"
       id="rect4193-0-4"
       width="100"
       height="100"
       x="542.95953"
       y="320.50925"
       inkscape:export-xdpi="31.5"
       inkscape:export-ydpi="31.5" />
    <path
       style="fill:#daf4e7;fill-opacity:1"
       d="m 599.90771,413.68058 c -0.20121,-0.0258 -10.13854,-2.9452 -22.08297,-6.48739 -23.9367,-7.09859 -22.08306,-6.51095 -23.53176,-7.46004 -3.53493,-2.31585 -6.17997,-5.81286 -7.36178,-9.73305 -0.98505,-3.2675 -0.98109,-7.33807 0.0103,-10.58746 0.11502,-0.37699 0.32513,-1.12799 0.4669,-1.66889 0.48464,-1.8489 1.09002,-3.45088 1.93865,-5.13019 0.93239,-1.84503 -0.41083,-0.29794 20.26524,-23.34107 10.37794,-11.56604 18.97045,-21.10653 19.09447,-21.20111 0.60807,-0.46366 1.30668,-0.68562 2.29849,-0.73025 l 0.68544,-0.0308 16.53987,3.7023 c 9.09693,2.03626 19.30248,4.32032 22.67901,5.07568 3.37652,0.75536 6.27323,1.42933 6.43714,1.49772 0.85613,0.35719 1.61609,1.06654 1.99563,1.86273 0.29255,0.61373 0.3852,1.01181 0.38144,1.63909 -0.005,0.78674 -0.27464,1.60468 -0.72779,2.20531 -0.44667,0.59206 -38.30243,44.21198 -38.74529,44.6449 -0.85863,0.83936 -1.69568,1.16799 -2.83811,1.11427 -0.57659,-0.0271 -1.21574,-0.20624 -19.58785,-5.48948 -20.857,-5.9978 -19.1153,-5.53609 -20.35988,-5.39731 -1.52171,0.16969 -2.50653,0.82491 -3.18556,2.11944 -0.89921,1.71429 -1.13445,4.75351 -0.5801,7.49476 0.55617,2.75027 2.12468,4.94853 4.19302,5.87653 0.331,0.14851 40.568,12.09116 41.10198,12.19938 0.13905,0.0282 1.45228,-1.53607 16.42067,-19.55945 8.94825,-10.77455 16.27838,-19.62869 16.28917,-19.67587 0.0108,-0.0472 -0.0487,-0.37325 -0.13225,-0.72459 -0.26135,-1.09905 -0.34264,-1.73361 -0.37581,-2.93353 -0.0584,-2.11037 0.28307,-4.03907 1.07999,-6.10099 0.41507,-1.07398 0.78564,-1.58284 1.50107,-2.06136 0.62286,-0.41659 1.22747,-0.59953 1.97836,-0.59861 0.64336,7.9e-4 1.02653,0.0838 1.5775,0.34181 0.81624,0.38223 1.54502,1.21779 1.8353,2.10421 0.12193,0.37231 0.14518,0.55953 0.14395,1.15926 -0.002,0.71094 -0.004,0.72114 -0.33668,1.69869 -0.46654,1.36867 -0.55111,1.86458 -0.54888,3.21857 0.002,0.96332 0.022,1.19879 0.16179,1.86334 0.088,0.41838 0.26739,1.0431 0.39865,1.38826 0.30364,0.79849 0.3931,1.36721 0.30659,1.94892 -0.0871,0.58526 -0.23105,1.00854 -0.48368,1.42179 -0.32692,0.53475 -35.86515,43.30622 -36.20879,43.57849 -0.75169,0.59561 -1.75366,0.87685 -2.69345,0.75603 z m 14.15159,-58.56124 c 0.59236,-0.12175 1.21672,-0.38336 1.5882,-0.66549 0.26497,-0.20122 3.01101,-3.3901 3.42828,-3.98112 0.57203,-0.81022 0.1923,-1.62053 -0.94796,-2.02284 -0.14365,-0.0506 -6.37876,-1.58496 -13.85578,-3.40952 -12.64034,-3.0845 -13.63853,-3.31916 -14.22043,-3.34287 -1.06801,-0.0435 -2.09189,0.20072 -2.84319,0.67819 -0.23503,0.14937 -0.68685,0.64832 -1.86741,2.06223 -0.85655,1.02584 -1.60984,1.96663 -1.67397,2.09065 -0.13347,0.25809 -0.15784,0.64764 -0.0592,0.94654 0.0882,0.26717 0.49227,0.65743 0.88199,0.8518 0.212,0.10572 4.52067,1.18527 13.70873,3.43473 7.36976,1.80429 13.5605,3.31645 13.75719,3.36035 0.5033,0.11231 1.5506,0.11098 2.10353,-0.003 z"
       id="path4206"
       inkscape:connector-curvature="0"
       inkscape:export-xdpi="31.5"
       inkscape:export-ydpi="31.5" />
    <rect
       style="opacity:1;fill:none;fill-opacity:1;fill-rule:nonzero;stroke:none;stroke-width:1;stroke-linecap:butt;stroke-linejoin:miter;stroke-miterlimit:4;stroke-dasharray:none;stroke-dashoffset:0;stroke-opacity:1"
       id="rect4193-0-2"
       width="100"
       height="100"
       x="278.29959"
       y="76.052322"
       inkscape:export-xdpi="31.5"
       inkscape:export-ydpi="31.5" />
    <path
       style="fill:#daf4e7;fill-opacity:1"
       d="m 312.98385,164.29638 c -5.91152,-1.11095 -15.83822,-4.54967 -17.68387,-6.12588 -1.2353,-1.05494 -1.35464,-4.85205 -0.18307,-5.82436 0.45283,-0.37583 2.57447,-0.93131 4.71476,-1.23439 8.31168,-1.17709 17.47665,-4.05444 26.567,-8.34069 13.92314,-6.56503 22.39191,-14.96764 26.31837,-26.11283 1.14255,-3.24315 1.2909,-4.61368 1.12046,-10.35154 -0.10804,-3.63742 -0.35348,-7.260447 -0.54536,-8.051196 -1.67086,-6.884514 -0.89476,-8.529647 4.83592,-10.251051 3.30925,-0.994043 3.91948,-1.029528 5.31954,-0.309357 1.84496,0.949005 1.85386,1.06014 0.70226,8.761922 -0.8807,5.890192 -0.80427,6.974242 0.49174,6.974242 1.55526,0 6.57484,5.18286 7.81772,8.072 2.64151,6.14033 1.3038,17.11863 -3.16274,25.95622 -5.89521,11.66437 -16.44217,20.23022 -30.28718,24.59813 -8.45485,2.66736 -18.94387,3.56965 -26.02555,2.23878 z m -16.93529,-19.81081 c -5.49362,-3.05758 -10.43475,-7.19462 -12.19821,-10.2132 -0.54834,-0.93859 0.0219,-3.34479 1.14547,-4.83448 l 0.97011,-1.28612 6.60794,0.88565 c 20.67433,2.77107 41.38162,-0.6566 51.34733,-8.49944 4.98771,-3.92526 2.65312,1.2375 -3.33323,7.37127 -7.57131,7.75767 -17.72366,12.94602 -33.64252,17.19298 -3.00482,0.80165 -5.85149,1.45523 -6.32593,1.45241 -0.47446,-0.003 -2.53139,-0.9339 -4.57096,-2.06907 z m 3.33941,-18.89906 c -0.1502,-0.15018 -1.60012,-0.32003 -3.22203,-0.37744 -2.76662,-0.098 -3.1447,-0.30325 -6.11556,-3.32121 -3.7195,-3.77847 -7.25852,-9.41735 -7.25852,-11.56526 0,-1.35619 1.40448,-3.18079 3.24215,-4.21193 0.35985,-0.20191 2.45632,0.376 4.65882,1.28424 3.66198,1.51008 13.04039,4.55102 17.97788,5.8293 4.96911,1.28647 9.83005,2.00394 16.96502,2.50399 4.99693,0.3502 12.16938,-0.77086 19.08401,-2.98292 2.48101,-0.7937 2.01855,0.14418 -1.43485,2.90982 -6.35513,5.08952 -15.7314,8.54931 -26.03453,9.60663 -5.94674,0.61024 -17.36925,0.81794 -17.86239,0.32478 z"
       id="path4191"
       inkscape:connector-curvature="0"
       sodipodi:nodetypes="ssssssssssssssssssscsssscsasssssssssaa"
       inkscape:export-xdpi="31.5"
       inkscape:export-ydpi="31.5" />
  </g>
</svg>
